<svg width="128" height="112" viewBox="0 0 128 112" fill="none" xmlns="http://www.w3.org/2000/svg">
<path d="M33.4032 60.937L0.616878 3.43204C-0.798359 0.950733 0.304268 -0.513024 3.0779 0.16628C27.8967 6.24686 48.1316 9.28809 63.7825 9.28999C79.4335 9.28999 99.6749 6.24875 124.507 0.16628C127.281 -0.513024 128.383 0.950733 126.968 3.43204L107.43 37.69C106.458 37.6389 105.455 37.8122 104.134 38.068C96.2591 39.1055 83.3315 43.7753 77.8667 46.7967C82.7092 44.8781 94.5966 43.9146 104.122 43.4883L66.3487 109.719C64.9306 112.2 62.6344 112.2 61.2192 109.719L35.9097 65.334C43.8697 63.7565 52.6425 60.9001 58.2097 57.1909C56.2943 58.6376 42.8552 60.9768 33.4032 60.937Z" fill="white"/>
</svg>
